<svg width="140" height="147" viewBox="0 0 140 147" fill="none" xmlns="http://www.w3.org/2000/svg">
<path d="M2.496 133.472L23.104 103.008L2.24 104.416L3.776 95.584L18.368 96.288L33.024 95.52L32.064 102.368L11.392 132.96L33.856 131.552L32.576 140.384L17.152 139.68L1.408 140.384L2.496 133.472ZM49.9195 133.472C51.1568 133.472 52.4582 133.152 53.8235 132.512C55.1888 131.872 56.2555 131.232 57.0235 130.592L58.1755 129.632L61.1195 133.216C60.6928 133.941 60.0315 134.773 59.1355 135.712C58.2395 136.651 57.3222 137.461 56.3835 138.144C55.4875 138.784 54.2715 139.381 52.7355 139.936C51.2422 140.448 49.6848 140.704 48.0635 140.704C44.6075 140.704 41.7915 139.403 39.6155 136.8C37.4395 134.155 36.3515 130.763 36.3515 126.624C36.3515 121.419 37.8662 116.853 40.8955 112.928C43.9248 109.003 47.4662 107.04 51.5195 107.04C54.6342 107.04 57.0448 107.915 58.7515 109.664C60.5008 111.413 61.3755 113.867 61.3755 117.024C61.3755 118.901 61.0555 121.035 60.4155 123.424L59.1355 124.768L43.1355 126.24C43.8608 131.061 46.1222 133.472 49.9195 133.472ZM49.9195 113.632C48.0422 113.632 46.4635 114.4 45.1835 115.936C43.9035 117.429 43.1568 119.349 42.9435 121.696L53.8235 120.352C53.9515 119.371 54.0155 118.56 54.0155 117.92C54.0155 115.061 52.6502 113.632 49.9195 113.632ZM85.522 123.808C85.522 120.864 85.266 118.901 84.754 117.92C84.242 116.939 83.0473 116.448 81.17 116.448C79.2927 116.448 77.1593 117.195 74.77 118.688V123.36L75.474 138.4L66.898 140L67.666 124.448C67.4953 118.731 67.026 113.611 66.258 109.088L74.002 107.424C74.3007 109.899 74.514 112.309 74.642 114.656C75.282 113.803 76.0073 112.971 76.818 112.16C77.6287 111.307 78.9087 110.368 80.658 109.344C82.4073 108.277 84.242 107.744 86.162 107.744C88.1247 107.744 89.7673 108.512 91.09 110.048C92.4127 111.541 93.074 113.589 93.074 116.192L92.69 123.36L93.394 138.72L84.754 140.32L85.522 123.808ZM99.374 133.664L112.878 114.4L98.734 115.36L100.206 107.296L111.15 108L121.838 107.232L120.75 113.888L107.182 133.216L122.734 132.32L121.326 140.384L110.446 139.68L98.286 140.384L99.374 133.664ZM135.726 107.424L134.958 123.36L135.662 138.4L127.086 140L127.854 124.448L127.15 109.024L135.726 107.424ZM126.702 98.08C126.702 96.6293 127.256 95.3493 128.366 94.24C129.475 93.088 130.755 92.512 132.206 92.512C133.656 92.512 134.766 92.9173 135.534 93.728C136.302 94.496 136.686 95.6693 136.686 97.248C136.686 98.8267 136.131 100.192 135.022 101.344C133.955 102.453 132.696 103.008 131.246 103.008C129.838 103.008 128.728 102.539 127.918 101.6C127.107 100.661 126.702 99.488 126.702 98.08Z" fill="#EED8BA"/>
<circle cx="70" cy="48" r="40" fill="#EED8BA"/>
<path d="M100.046 26.1255C100.74 26.7507 101.401 27.4059 102 28.1432C102 28.2956 102 28.4479 102 28.6049C101.819 28.5668 101.637 28.5287 101.451 28.4894C95.6361 27.5992 89.6989 29.9399 85.0465 33.683C84.8455 33.8443 84.6445 34.0056 84.4374 34.1717C82.371 35.8591 80.353 37.6191 78.3657 39.418C74.7688 42.6694 71.1398 45.7987 66.6279 47.3017C66.4424 47.3637 66.2568 47.4257 66.0657 47.4895C64.4646 47.9801 62.9614 48.1116 61.3038 48.0952C61.0546 48.0932 60.8053 48.0913 60.5486 48.0894C58.7948 48.052 57.3489 47.8958 55.7442 47.0709C55.5081 46.9587 55.272 46.8465 55.0288 46.7309C52.0404 45.2107 49.6276 42.9182 47.5029 40.1605C45.2383 37.2801 42.4876 34.7575 39 34.1447C39 33.9923 39 33.84 39 33.683C39.6413 33.6513 40.2813 33.6287 40.923 33.6109C41.0998 33.6012 41.2767 33.5915 41.4589 33.5816C44.6529 33.5156 47.0923 35.6034 49.609 37.5061C52.3072 39.627 52.3072 39.627 55.3256 41.0694C55.4687 41.1193 55.6118 41.1692 55.7593 41.2207C59.4556 42.3873 63.1999 41.2213 66.45 39.2353C69.8185 37.1185 72.8046 34.2471 75.7216 31.453C82.4326 25.0693 91.7328 19.1883 100.046 26.1255Z" fill="#5A3A22"/>
<path d="M80.2326 56.9964C81.1084 57.7995 81.9366 58.65 82.7442 59.5355C82.8437 59.6443 82.9433 59.7532 83.0459 59.8654C85.3669 62.4399 86.8805 65.3341 88.3169 68.5809C88.4311 68.8376 88.5453 69.0943 88.6631 69.3588C88.7673 69.6005 88.8716 69.8422 88.9791 70.0912C89.0734 70.3088 89.1678 70.5263 89.2649 70.7505C89.4419 71.3075 89.4419 71.3075 89.2326 72C89.1184 71.8435 89.0043 71.687 88.8867 71.5257C87.9273 70.2198 86.9493 68.9476 85.9205 67.7072C85.627 67.3498 85.3382 66.9876 85.0555 66.6198C83.9841 65.2313 82.7935 64.1126 81.4884 62.9978C81.2895 62.8238 81.0907 62.6497 80.8858 62.4704C75.4258 57.7959 69.4101 55.9283 62.5013 56.8406C61.5407 57.0237 60.6392 57.3246 59.7209 57.6889C59.4921 57.7725 59.2633 57.8561 59.0276 57.9422C54.4336 59.7386 49.7544 63.198 47.1628 67.8452C46.7658 66.7068 47.2749 65.801 47.6681 64.7326C48.5186 62.6533 49.6161 60.8273 50.9302 59.0738C51.0187 58.9426 51.1072 58.8114 51.1984 58.6762C54.1406 54.4917 59.2556 51.9663 63.8885 51.2771C69.8966 50.5707 75.5901 52.8636 80.2326 56.9964Z" fill="#5A3A22"/>
<path d="M62.9169 27.3615C64.0759 28.0164 64.9664 29.3401 65.3721 30.6823C65.5289 33.0709 65.4678 34.773 64.0378 36.6405C62.8756 37.7087 61.9677 37.9588 60.4764 37.901C59.0985 37.7418 58.4028 36.9041 57.5266 35.8137C56.5748 34.2689 56.6436 32.4769 56.7907 30.6823C57.1399 29.2203 57.9989 28.3097 59.0931 27.4508C60.1396 26.8737 61.8088 27.0313 62.9169 27.3615Z" fill="#5A3A22"/>
</svg>
