<svg width="117" height="119" viewBox="0 0 117 119" fill="none" xmlns="http://www.w3.org/2000/svg">
<g clip-path="url(#clip0_431_2529)">
<path d="M72.6158 37.0985C81.3033 44.5436 87.1565 53.1608 88.9688 64.7969C89.9156 78.1369 87.5802 89.0119 79.2656 99.4297C71.464 108.001 62.9561 113.306 51.4913 114.18C38.3329 114.398 28.3391 111.025 18.6758 101.581C9.66201 91.6882 6.6564 81.7316 6.79962 68.2924C7.61648 55.965 13.3376 46.2291 21.7839 37.7923C36.6053 25.6713 57.5055 25.8748 72.6158 37.0985ZM21.4217 48.0434C15.3307 56.9168 12.0777 66.1303 13.5 77.0859C16.2921 88.3635 20.725 96.3036 30.3331 102.458C38.76 107.175 46.9939 108.805 56.406 106.517C63.6179 104.122 68.6476 100.584 73.875 94.9609C74.6755 94.1314 75.476 93.3019 76.3008 92.4473C81.2549 84.3802 83.9001 75.4543 82.5 65.9141C79.6844 54.6336 75.288 46.7047 65.6669 40.5417C51.064 32.3689 32.415 34.2281 21.4217 48.0434Z" fill="#A45F2B"/>
<path d="M39.375 46.9218C39.2402 49.3656 39.2402 49.3656 38.2969 52.5077C36.698 53.9124 35.0952 55.3138 33.4453 56.6535C29.8959 59.8144 28.7941 63.1613 28.2147 67.8909C27.9019 74.673 28.3374 79.804 32.3335 85.3251C37.1277 90.5972 41.1136 91.8906 47.9326 92.2377C54.2367 91.9924 58.4857 90.5229 63.0937 86.0234C67.5851 80.3221 68.1416 75.3827 67.8948 68.0829C66.9226 61.5433 63.8849 57.4089 58.9834 53.3456C58.2051 52.7004 57.4269 52.0553 56.625 51.3905C56.625 49.9159 56.625 48.4412 56.625 46.9218C59.2481 45.9229 60.4504 45.5829 63.0558 46.769C69.0987 51.3693 72.8251 56.154 74.9531 63.6796C76.1449 72.5065 75.6722 80.3183 71.3144 88.1181C67.2228 93.6625 61.9211 97.273 55.5469 99.4296C45.9815 100.579 37.4947 100.043 29.6719 93.8437C23.6206 87.3641 20.7416 80.9076 20.5752 71.849C20.7257 63.0898 22.5204 56.5828 28.5643 50.2952C34.6676 45.1292 34.6676 45.1292 39.375 46.9218Z" fill="#A45F2B"/>
<path d="M52.3125 56.9765C57.0136 59.4582 60.0025 61.932 62.0156 67.0312C62.5939 72.4242 62.5764 74.828 60.1963 79.6694C56.3422 84.3108 53.9968 85.8295 48.0674 86.5122C43.4556 86.3138 40.7397 84.6941 37.2187 81.5547C34.1082 77.6868 33.4031 74.3064 33.6053 69.2569C34.438 64.3672 37.1505 61.318 40.7226 58.2334C44.656 56.566 48.1644 56.218 52.3125 56.9765ZM42.8115 66.0537C40.126 69.0562 40.126 69.0562 40.3857 72.7568C41.3296 75.9871 41.3296 75.9871 43.3506 78.1333C46.8134 79.782 48.7167 79.3923 52.3125 78.2031C54.5534 76.4414 54.5534 76.4414 55.5469 73.7344C55.469 69.7803 55.1932 67.8078 52.5146 64.9365C48.4285 62.7589 46.3946 63.2484 42.8115 66.0537Z" fill="#A45F2B"/>
<path d="M90.0006 95.6111C90.7274 95.7652 91.4543 95.9193 92.2031 96.078C93.1146 99.0768 94.0106 102.079 94.8985 105.085C95.1556 105.926 95.4127 106.766 95.6776 107.632C97.225 112.923 97.8771 117.363 97.5938 122.891C91.3532 123.234 86.3405 122.046 80.4111 120.098C79.151 119.698 79.151 119.698 77.8653 119.29C75.8136 118.638 73.7657 117.973 71.7188 117.305C71.2681 115.022 71.2681 115.022 71.7188 111.719C73.8162 108.675 76.3437 106.148 78.9287 103.549C79.6035 102.828 80.2782 102.108 80.9734 101.365C86.0157 96.1947 86.0157 96.1947 90.0006 95.6111ZM86.8125 106.133C84.9895 108.344 83.1918 110.579 81.4219 112.836C84.2681 113.573 87.1144 114.311 90.0469 115.07C89.3353 112.121 88.6238 109.171 87.8906 106.133C87.5349 106.133 87.1791 106.133 86.8125 106.133Z" fill="#A45F2B"/>
<path d="M3.79687 96.0782C5.99945 95.6113 5.99945 95.6113 9.1875 96.0782C12.1245 98.2516 14.5637 100.871 17.0713 103.549C17.7669 104.249 18.4624 104.948 19.1791 105.668C24.1686 110.893 24.1686 110.893 24.7319 115.022C24.5832 115.776 24.4345 116.529 24.2812 117.305C21.3873 118.249 18.49 119.178 15.5889 120.098C14.7779 120.364 13.967 120.631 13.1315 120.905C8.02492 122.509 3.74061 123.184 -1.59376 122.891C-1.92526 116.424 -0.77836 111.23 1.10156 105.086C1.35866 104.215 1.61577 103.344 1.88067 102.448C2.51004 100.321 3.15215 98.1994 3.79687 96.0782ZM8.10937 106.133C7.39781 109.082 6.68624 112.032 5.95312 115.07C8.79937 114.333 11.6456 113.596 14.5781 112.836C12.8082 110.579 11.0105 108.344 9.1875 106.133C8.83171 106.133 8.47593 106.133 8.10937 106.133Z" fill="#A45F2B"/>
<path d="M97.5938 20.1093C97.9253 26.576 96.7784 31.7703 94.8984 37.9145C94.6413 38.7851 94.3842 39.6556 94.1193 40.5526C93.49 42.6786 92.8478 44.8007 92.2031 46.9218C90.0006 47.3888 90.0006 47.3888 86.8125 46.9218C83.8755 44.7484 81.4363 42.1294 78.9287 39.4506C77.8853 38.4019 77.8853 38.4019 76.8209 37.3319C71.8314 32.1069 71.8314 32.1069 71.2681 27.9777C71.4168 27.2245 71.5655 26.4713 71.7188 25.6953C74.6127 24.7508 77.51 23.8223 80.4111 22.9023C81.2221 22.6359 82.033 22.3695 82.8685 22.095C87.9751 20.4914 92.2594 19.8157 97.5938 20.1093ZM81.4219 30.164C83.2008 32.3761 84.9797 34.5881 86.8125 36.8671C89.5784 34.001 89.5514 31.8656 90.0469 27.9296C86.9376 27.9296 84.3384 29.1128 81.4219 30.164Z" fill="#A45F2B"/>
<path d="M-1.59375 20.1094C4.64682 19.7659 9.65951 20.9544 15.5889 22.9024C16.429 23.1688 17.2691 23.4353 18.1347 23.7098C20.1864 24.3619 22.2343 25.0273 24.2812 25.6954C24.7319 27.9778 24.7319 27.9778 24.2812 31.2813C22.1838 34.3248 19.6564 36.8523 17.0713 39.4508C16.0592 40.5319 16.0592 40.5319 15.0266 41.6349C9.98433 46.8052 9.98433 46.8052 5.99945 47.3889C5.2726 47.2348 4.54575 47.0807 3.79688 46.9219C2.88541 43.9232 1.98943 40.9209 1.10156 37.9146C0.844456 37.0743 0.587349 36.234 0.32245 35.3682C-1.225 30.0766 -1.87711 25.6371 -1.59375 20.1094ZM5.95313 27.9298C6.66469 30.8791 7.37625 33.8285 8.10938 36.8673C10.2441 35.0239 12.3787 33.1805 14.5781 31.2813C11.8122 28.4152 9.7515 28.4431 5.95313 27.9298Z" fill="#A45F2B"/>
<path d="M35.0625 118.422C43.6012 118.422 52.14 118.422 60.9375 118.422C62.4489 124.687 60.1043 127.275 57.0293 132.596C56.5554 133.473 56.0815 134.349 55.5932 135.252C51.9789 141.605 51.9789 141.605 48.1769 143.022C47.4069 143.015 46.637 143.007 45.8437 143C42.4901 137.948 39.2206 132.848 36.208 127.569C35.5263 126.383 35.5263 126.383 34.8309 125.173C33.9844 122.891 33.9844 122.891 35.0625 118.422ZM43.6875 125.125C44.7548 127.337 45.8222 129.549 46.9219 131.828C47.9892 131.459 49.0566 131.091 50.1562 130.711C51.4702 127.913 51.4702 127.913 52.3125 125.125C49.4662 125.125 46.62 125.125 43.6875 125.125Z" fill="#A45F2B"/>
<path d="M94.3594 56.9766C99.6233 57.4277 103.669 60.1047 108.105 62.8418C108.843 63.2695 109.581 63.6972 110.342 64.1379C115.68 67.4131 115.68 67.4131 116.949 71.2731C116.966 72.0853 116.983 72.8975 117 73.7344C112.125 77.2096 107.203 80.5975 102.108 83.7192C100.964 84.4256 100.964 84.4256 99.7963 85.1463C97.1276 86.2091 95.9628 85.7211 93.2813 84.9063C93.2501 80.4608 93.2308 76.0154 93.2139 71.5698C93.2048 70.3004 93.1958 69.0309 93.1865 67.7229C93.183 66.5168 93.1795 65.3107 93.176 64.0681C93.1703 62.9506 93.1647 61.8332 93.1589 60.6819C93.2813 58.0938 93.2813 58.0938 94.3594 56.9766ZM99.75 67.0313C99.75 69.9806 99.75 72.93 99.75 75.9688C101.885 74.8627 104.019 73.7567 106.219 72.6172C105.863 71.5112 105.507 70.4052 105.141 69.2656C102.44 67.9041 102.44 67.9041 99.75 67.0313Z" fill="#A45F2B"/>
<path d="M48.2443 -0.0915527C53.022 1.83997 54.5974 5.90699 57.0293 10.4039C57.5282 11.2673 58.0271 12.1306 58.5412 13.0201C62.1569 19.5238 62.1569 19.5238 60.9375 24.5782C52.3987 24.5782 43.86 24.5782 35.0625 24.5782C33.9844 20.1095 33.9844 20.1095 34.8346 17.8765C35.285 17.1113 35.7355 16.3461 36.1996 15.5578C36.6846 14.7204 37.1696 13.8829 37.6694 13.0201C38.1878 12.1568 38.7061 11.2934 39.2402 10.4039C39.7503 9.52758 40.2603 8.65127 40.7858 7.7484C45.3108 0.0204397 45.3108 0.0204397 48.2443 -0.0915527ZM46.9219 11.172C45.8545 13.384 44.7872 15.596 43.6875 17.8751C46.5337 17.8751 49.38 17.8751 52.3125 17.8751C50.7115 14.557 50.7115 14.557 49.0781 11.172C48.3666 11.172 47.655 11.172 46.9219 11.172Z" fill="#A45F2B"/>
<path d="M2.71875 58.0938C2.71875 66.9419 2.71875 75.79 2.71875 84.9063C-3.32697 86.4724 -5.82488 84.0429 -10.96 80.8564C-11.8056 80.3654 -12.6513 79.8743 -13.5226 79.3683C-19.6542 75.6231 -19.6542 75.6231 -21.0211 71.6833C-21.0141 70.8855 -21.0072 70.0876 -21 69.2656C-16.1251 65.7905 -11.2027 62.4025 -6.1084 59.2808C-5.34541 58.8098 -4.58243 58.3389 -3.79633 57.8537C-1.59375 56.9766 -1.59375 56.9766 2.71875 58.0938ZM-10.2188 70.3828C-9.86297 71.4888 -9.50719 72.5948 -9.14062 73.7344C-6.44049 75.0959 -6.44049 75.0959 -3.75 75.9688C-3.75 73.0194 -3.75 70.07 -3.75 67.0313C-6.07355 67.0313 -8.29555 69.1564 -10.2188 70.3828Z" fill="#A45F2B"/>
<path d="M45.8438 43.5703C47.6227 43.939 49.4016 44.3077 51.2344 44.6875C50.8786 46.1622 50.5228 47.6369 50.1562 49.1562C48.3773 48.7876 46.5984 48.4189 44.7656 48.0391C45.1214 46.5644 45.4772 45.0897 45.8438 43.5703Z" fill="#A45F2B"/>
</g>
<defs>
<clipPath id="clip0_431_2529">
<rect width="138" height="143" fill="white" transform="translate(-21)"/>
</clipPath>
</defs>
</svg>
