<svg width="117" height="122" viewBox="0 0 117 122" fill="none" xmlns="http://www.w3.org/2000/svg">
<g clip-path="url(#clip0_428_2503)">
<path d="M72.6158 16.0985C81.3033 23.5436 87.1565 32.1608 88.9688 43.7969C89.9156 57.1369 87.5802 68.0119 79.2656 78.4297C71.464 87.0012 62.9561 92.3063 51.4913 93.18C38.3329 93.3985 28.3391 90.0254 18.6758 80.5811C9.66201 70.6882 6.6564 60.7316 6.79962 47.2924C7.61648 34.965 13.3376 25.2291 21.7839 16.7923C36.6053 4.67134 57.5055 4.87479 72.6158 16.0985ZM21.4217 27.0434C15.3307 35.9168 12.0777 45.1303 13.5 56.0859C16.2921 67.3635 20.725 75.3036 30.3331 81.4583C38.76 86.1746 46.9939 87.8053 56.406 85.5168C63.6179 83.1221 68.6476 79.5836 73.875 73.9609C74.6755 73.1314 75.476 72.3019 76.3008 71.4473C81.2549 63.3802 83.9001 54.4543 82.5 44.9141C79.6844 33.6336 75.288 25.7047 65.6669 19.5417C51.064 11.3689 32.415 13.2281 21.4217 27.0434Z" fill="#A45F2B"/>
<path d="M39.375 25.9219C39.2402 28.3657 39.2402 28.3657 38.2969 31.5078C36.698 32.9125 35.0952 34.3138 33.4453 35.6536C29.8959 38.8144 28.7941 42.1614 28.2147 46.891C27.9019 53.6731 28.3374 58.804 32.3335 64.3252C37.1277 69.5973 41.1136 70.8907 47.9326 71.2378C54.2367 70.9925 58.4857 69.523 63.0937 65.0234C67.5851 59.3222 68.1416 54.3828 67.8948 47.083C66.9226 40.5434 63.8849 36.409 58.9834 32.3457C58.2051 31.7005 57.4269 31.0554 56.625 30.3906C56.625 28.9159 56.625 27.4413 56.625 25.9219C59.2481 24.923 60.4504 24.5829 63.0558 25.7691C69.0987 30.3694 72.8251 35.1541 74.9531 42.6797C76.1449 51.5066 75.6722 59.3184 71.3144 67.1182C67.2228 72.6626 61.9211 76.2731 55.5469 78.4297C45.9815 79.5794 37.4947 79.0427 29.6719 72.8438C23.6206 66.3642 20.7416 59.9077 20.5752 50.8491C20.7257 42.0899 22.5204 35.5829 28.5643 29.2953C34.6676 24.1293 34.6676 24.1293 39.375 25.9219Z" fill="#A45F2B"/>
<path d="M52.3125 35.9765C57.0136 38.4582 60.0025 40.932 62.0156 46.0312C62.5939 51.4242 62.5764 53.828 60.1963 58.6694C56.3422 63.3108 53.9968 64.8295 48.0674 65.5122C43.4556 65.3138 40.7397 63.6941 37.2187 60.5547C34.1082 56.6868 33.4031 53.3064 33.6053 48.2569C34.438 43.3672 37.1505 40.318 40.7226 37.2334C44.656 35.566 48.1644 35.218 52.3125 35.9765ZM42.8115 45.0537C40.126 48.0562 40.126 48.0562 40.3857 51.7568C41.3296 54.9871 41.3296 54.9871 43.3506 57.1333C46.8134 58.782 48.7167 58.3923 52.3125 57.2031C54.5534 55.4414 54.5534 55.4414 55.5469 52.7344C55.469 48.7803 55.1932 46.8078 52.5146 43.9365C48.4285 41.7589 46.3946 42.2484 42.8115 45.0537Z" fill="#A45F2B"/>
<path d="M90.0006 74.6112C90.7274 74.7653 91.4543 74.9194 92.2031 75.0781C93.1146 78.0769 94.0106 81.0792 94.8985 84.0855C95.1556 84.9258 95.4127 85.7661 95.6776 86.6319C97.225 91.9234 97.8771 96.363 97.5938 101.891C91.3532 102.234 86.3405 101.046 80.4111 99.0977C79.151 98.698 79.151 98.698 77.8653 98.2903C75.8136 97.6381 73.7657 96.9728 71.7188 96.3047C71.2681 94.0223 71.2681 94.0223 71.7188 90.7188C73.8162 87.6753 76.3437 85.1478 78.9287 82.5493C79.6035 81.8285 80.2782 81.1078 80.9734 80.3651C86.0157 75.1948 86.0157 75.1948 90.0006 74.6112ZM86.8125 85.1328C84.9895 87.3444 83.1918 89.5786 81.4219 91.8359C84.2681 92.5733 87.1144 93.3106 90.0469 94.0703C89.3353 91.1209 88.6238 88.1716 87.8906 85.1328C87.5349 85.1328 87.1791 85.1328 86.8125 85.1328Z" fill="#A45F2B"/>
<path d="M3.79687 75.0781C5.99945 74.6112 5.99945 74.6112 9.1875 75.0781C12.1245 77.2515 14.5637 79.8706 17.0713 82.5493C17.7669 83.2485 18.4624 83.9477 19.1791 84.668C24.1686 89.893 24.1686 89.893 24.7319 94.0223C24.5832 94.7755 24.4345 95.5287 24.2812 96.3047C21.3873 97.2492 18.49 98.1776 15.5889 99.0976C14.7779 99.3641 13.967 99.6305 13.1315 99.905C8.02492 101.509 3.74061 102.184 -1.59376 101.891C-1.92526 95.4239 -0.77836 90.2296 1.10156 84.0854C1.35866 83.2149 1.61577 82.3443 1.88067 81.4474C2.51004 79.3213 3.15215 77.1993 3.79687 75.0781ZM8.10937 85.1328C7.39781 88.0822 6.68624 91.0316 5.95312 94.0703C8.79937 93.333 11.6456 92.5956 14.5781 91.8359C12.8082 89.5786 11.0105 87.3444 9.1875 85.1328C8.83171 85.1328 8.47593 85.1328 8.10937 85.1328Z" fill="#A45F2B"/>
<path d="M97.5938 -0.890636C97.9253 5.57604 96.7784 10.7704 94.8984 16.9145C94.6413 17.7851 94.3842 18.6557 94.1193 19.5526C93.49 21.6787 92.8478 23.8007 92.2031 25.9219C90.0006 26.3888 90.0006 26.3888 86.8125 25.9219C83.8755 23.7485 81.4363 21.1294 78.9287 18.4507C77.8853 17.4019 77.8853 17.4019 76.8209 16.3319C71.8314 11.1069 71.8314 11.1069 71.2681 6.97768C71.4168 6.2245 71.5655 5.47131 71.7188 4.6953C74.6127 3.75081 77.51 2.82237 80.4111 1.90233C81.2221 1.63591 82.033 1.36949 82.8685 1.09499C87.9751 -0.508522 92.2594 -1.18427 97.5938 -0.890636ZM81.4219 9.16405C83.2008 11.3761 84.9797 13.5881 86.8125 15.8672C89.5784 13.0011 89.5514 10.8657 90.0469 6.92968C86.9376 6.92968 84.3384 8.11284 81.4219 9.16405Z" fill="#A45F2B"/>
<path d="M-1.59375 -0.890616C4.64682 -1.23413 9.65951 -0.0456764 15.5889 1.90235C16.429 2.16878 17.2691 2.4352 18.1347 2.7097C20.1864 3.36187 22.2343 4.02724 24.2812 4.69532C24.7319 6.9777 24.7319 6.9777 24.2812 10.2813C22.1838 13.3247 19.6564 15.8522 17.0713 18.4507C16.0592 19.5319 16.0592 19.5319 15.0266 20.6349C9.98433 25.8052 9.98433 25.8052 5.99945 26.3888C5.2726 26.2347 4.54575 26.0807 3.79688 25.9219C2.88541 22.9231 1.98943 19.9208 1.10156 16.9146C0.844456 16.0742 0.587349 15.2339 0.32245 14.3682C-1.225 9.07657 -1.87711 4.63702 -1.59375 -0.890616ZM5.95313 6.9297C6.66469 9.87907 7.37625 12.8284 8.10938 15.8672C10.2441 14.0238 12.3787 12.1805 14.5781 10.2813C11.8122 7.41516 9.7515 7.44309 5.95313 6.9297Z" fill="#A45F2B"/>
<path d="M35.0625 97.4219C43.6012 97.4219 52.14 97.4219 60.9375 97.4219C62.4489 103.687 60.1043 106.275 57.0293 111.596C56.5554 112.473 56.0815 113.349 55.5932 114.252C51.9789 120.605 51.9789 120.605 48.1769 122.022C47.4069 122.015 46.637 122.007 45.8437 122C42.4901 116.948 39.2206 111.848 36.208 106.569C35.5263 105.383 35.5263 105.383 34.8309 104.173C33.9844 101.891 33.9844 101.891 35.0625 97.4219ZM43.6875 104.125C44.7548 106.337 45.8222 108.549 46.9219 110.828C47.9892 110.459 49.0566 110.091 50.1562 109.711C51.4701 106.913 51.4701 106.913 52.3125 104.125C49.4662 104.125 46.62 104.125 43.6875 104.125Z" fill="#A45F2B"/>
<path d="M94.3594 35.9766C99.6233 36.4277 103.669 39.1047 108.105 41.8418C108.843 42.2695 109.581 42.6972 110.342 43.1379C115.68 46.4131 115.68 46.4131 116.949 50.2731C116.966 51.0853 116.983 51.8975 117 52.7344C112.125 56.2096 107.203 59.5975 102.108 62.7192C100.964 63.4256 100.964 63.4256 99.7963 64.1463C97.1276 65.2091 95.9628 64.7211 93.2813 63.9063C93.2501 59.4608 93.2309 55.0154 93.2139 50.5698C93.2049 49.3004 93.1958 48.0309 93.1865 46.7229C93.183 45.5168 93.1796 44.3107 93.176 43.0681C93.1703 41.9506 93.1647 40.8332 93.1589 39.6819C93.2813 37.0938 93.2813 37.0938 94.3594 35.9766ZM99.75 46.0313C99.75 48.9806 99.75 51.93 99.75 54.9688C101.885 53.8627 104.019 52.7567 106.219 51.6172C105.863 50.5112 105.507 49.4052 105.141 48.2656C102.441 46.9041 102.441 46.9041 99.75 46.0313Z" fill="#A45F2B"/>
<path d="M48.2443 -21.0916C53.022 -19.1601 54.5974 -15.0931 57.0293 -10.5962C57.5282 -9.73284 58.0271 -8.86948 58.5412 -7.97997C62.1569 -1.47631 62.1569 -1.47631 60.9375 3.57812C52.3987 3.57812 43.86 3.57812 35.0625 3.57812C33.9844 -0.890625 33.9844 -0.890625 34.8345 -3.12364C35.285 -3.88879 35.7355 -4.65395 36.1996 -5.44229C36.6846 -6.27972 37.1696 -7.11716 37.6694 -7.97997C38.1877 -8.84332 38.7061 -9.70667 39.2402 -10.5962C39.7503 -11.4725 40.2603 -12.3488 40.7858 -13.2517C45.3107 -20.9797 45.3107 -20.9797 48.2443 -21.0916ZM46.9219 -9.82812C45.8545 -7.61609 44.7872 -5.40406 43.6875 -3.125C46.5337 -3.125 49.38 -3.125 52.3125 -3.125C50.7115 -6.44305 50.7115 -6.44305 49.0781 -9.82812C48.3666 -9.82812 47.655 -9.82812 46.9219 -9.82812Z" fill="#A45F2B"/>
<path d="M2.71875 37.0938C2.71875 45.9419 2.71875 54.79 2.71875 63.9063C-3.32697 65.4724 -5.82488 63.0429 -10.96 59.8564C-11.8056 59.3654 -12.6513 58.8743 -13.5226 58.3683C-19.6542 54.6231 -19.6542 54.6231 -21.0211 50.6833C-21.0141 49.8855 -21.0072 49.0876 -21 48.2656C-16.1251 44.7905 -11.2027 41.4025 -6.1084 38.2808C-5.34541 37.8098 -4.58243 37.3389 -3.79633 36.8537C-1.59375 35.9766 -1.59375 35.9766 2.71875 37.0938ZM-10.2188 49.3828C-9.86297 50.4888 -9.50719 51.5948 -9.14062 52.7344C-6.44049 54.0959 -6.44049 54.0959 -3.75 54.9688C-3.75 52.0194 -3.75 49.07 -3.75 46.0313C-6.07355 46.0313 -8.29555 48.1564 -10.2188 49.3828Z" fill="#A45F2B"/>
<path d="M45.8438 22.5703C47.6227 22.939 49.4016 23.3077 51.2344 23.6875C50.8786 25.1622 50.5228 26.6369 50.1562 28.1562C48.3773 27.7876 46.5984 27.4189 44.7656 27.0391C45.1214 25.5644 45.4772 24.0897 45.8438 22.5703Z" fill="#A45F2B"/>
</g>
<defs>
<clipPath id="clip0_428_2503">
<rect width="138" height="143" fill="white" transform="translate(-21 -21)"/>
</clipPath>
</defs>
</svg>
