<svg width="99" height="118" viewBox="0 0 99 118" fill="none" xmlns="http://www.w3.org/2000/svg">
<g clip-path="url(#clip0_428_2442)">
<path d="M93.6158 37.0985C102.303 44.5436 108.157 53.1608 109.969 64.7969C110.916 78.1369 108.58 89.0119 100.266 99.4297C92.464 108.001 83.9561 113.306 72.4913 114.18C59.333 114.398 49.3391 111.025 39.6759 101.581C30.662 91.6882 27.6564 81.7316 27.7997 68.2924C28.6165 55.965 34.3377 46.2291 42.7839 37.7923C57.6054 25.6713 78.5056 25.8748 93.6158 37.0985ZM42.4217 48.0434C36.3307 56.9168 33.0777 66.1303 34.5 77.0859C37.2922 88.3635 41.725 96.3036 51.3331 102.458C59.76 107.175 67.9939 108.805 77.406 106.517C84.6179 104.122 89.6476 100.584 94.875 94.9609C95.6755 94.1314 96.4761 93.3019 97.3008 92.4473C102.255 84.3802 104.9 75.4543 103.5 65.9141C100.684 54.6336 96.288 46.7047 86.667 40.5417C72.064 32.3689 53.415 34.2281 42.4217 48.0434Z" fill="#A45F2B"/>
<path d="M60.375 46.9219C60.2402 49.3658 60.2402 49.3658 59.2969 52.5078C57.698 53.9125 56.0952 55.3139 54.4453 56.6537C50.8959 59.8145 49.7941 63.1614 49.2147 67.891C48.9019 74.6732 49.3374 79.8041 53.3335 85.3252C58.1277 90.5973 62.1136 91.8908 68.9326 92.2378C75.2367 91.9926 79.4857 90.523 84.0937 86.0235C88.5851 80.3223 89.1416 75.3828 88.8948 68.083C87.9226 61.5435 84.8849 57.409 79.9834 53.3457C79.2051 52.7006 78.4269 52.0554 77.625 51.3907C77.625 49.916 77.625 48.4413 77.625 46.9219C80.2481 45.923 81.4504 45.583 84.0558 46.7692C90.0987 51.3695 93.8251 56.1541 95.9531 63.6797C97.1449 72.5066 96.6722 80.3184 92.3144 88.1182C88.2228 93.6626 82.9211 97.2731 76.5469 99.4297C66.9815 100.579 58.4947 100.043 50.6719 93.8438C44.6206 87.3642 41.7416 80.9077 41.5752 71.8492C41.7257 63.0899 43.5204 56.5829 49.5643 50.2953C55.6676 45.1293 55.6676 45.1293 60.375 46.9219Z" fill="#A45F2B"/>
<path d="M73.3125 56.9765C78.0136 59.4582 81.0025 61.932 83.0156 67.0312C83.5939 72.4242 83.5764 74.828 81.1963 79.6694C77.3422 84.3108 74.9968 85.8295 69.0674 86.5122C64.4557 86.3138 61.7397 84.6941 58.2188 81.5547C55.1082 77.6868 54.4031 74.3064 54.6054 69.2569C55.4381 64.3672 58.1506 61.318 61.7227 58.2334C65.656 56.566 69.1644 56.218 73.3125 56.9765ZM63.8115 66.0537C61.126 69.0562 61.126 69.0562 61.3857 72.7568C62.3296 75.9871 62.3296 75.9871 64.3506 78.1333C67.8135 79.782 69.7167 79.3923 73.3125 78.2031C75.5535 76.4414 75.5535 76.4414 76.5469 73.7344C76.469 69.7803 76.1932 67.8078 73.5147 64.9365C69.4285 62.7589 67.3946 63.2484 63.8115 66.0537Z" fill="#A45F2B"/>
<path d="M111.001 95.6112C111.727 95.7653 112.454 95.9194 113.203 96.0782C114.115 99.0769 115.011 102.079 115.898 105.085C116.156 105.926 116.413 106.766 116.678 107.632C118.225 112.923 118.877 117.363 118.594 122.891C112.353 123.234 107.341 122.046 101.411 120.098C100.151 119.698 100.151 119.698 98.8653 119.29C96.8136 118.638 94.7657 117.973 92.7188 117.305C92.2681 115.022 92.2681 115.022 92.7188 111.719C94.8162 108.675 97.3437 106.148 99.9287 103.549C100.603 102.829 101.278 102.108 101.973 101.365C107.016 96.1949 107.016 96.1949 111.001 95.6112ZM107.813 106.133C105.99 108.344 104.192 110.579 102.422 112.836C105.268 113.573 108.114 114.311 111.047 115.07C110.335 112.121 109.624 109.172 108.891 106.133C108.535 106.133 108.179 106.133 107.813 106.133Z" fill="#A45F2B"/>
<path d="M24.7969 96.0781C26.9995 95.6112 26.9995 95.6112 30.1875 96.0781C33.1246 98.2515 35.5637 100.871 38.0713 103.549C38.7669 104.248 39.4625 104.948 40.1791 105.668C45.1686 110.893 45.1686 110.893 45.7319 115.022C45.5832 115.775 45.4345 116.529 45.2813 117.305C42.3874 118.249 39.4901 119.178 36.5889 120.098C35.778 120.364 34.967 120.63 34.1315 120.905C29.025 122.509 24.7406 123.184 19.4063 122.891C19.0748 116.424 20.2217 111.23 22.1016 105.085C22.3587 104.215 22.6158 103.344 22.8807 102.447C23.5101 100.321 24.1522 98.1993 24.7969 96.0781ZM29.1094 106.133C28.3978 109.082 27.6863 112.032 26.9532 115.07C29.7994 114.333 32.6457 113.596 35.5782 112.836C33.8082 110.579 32.0105 108.344 30.1875 106.133C29.8317 106.133 29.476 106.133 29.1094 106.133Z" fill="#A45F2B"/>
<path d="M118.594 20.1093C118.925 26.576 117.778 31.7703 115.898 37.9145C115.641 38.7851 115.384 39.6556 115.119 40.5526C114.49 42.6786 113.848 44.8007 113.203 46.9218C111.001 47.3888 111.001 47.3888 107.813 46.9218C104.875 44.7484 102.436 42.1294 99.9287 39.4506C98.8853 38.4019 98.8853 38.4019 97.8209 37.3319C92.8314 32.1069 92.8314 32.1069 92.2681 27.9777C92.4168 27.2245 92.5655 26.4713 92.7188 25.6953C95.6127 24.7508 98.51 23.8223 101.411 22.9023C102.222 22.6359 103.033 22.3695 103.869 22.095C108.975 20.4914 113.259 19.8157 118.594 20.1093ZM102.422 30.164C104.201 32.3761 105.98 34.5881 107.813 36.8671C110.578 34.001 110.551 31.8656 111.047 27.9296C107.938 27.9296 105.338 29.1128 102.422 30.164Z" fill="#A45F2B"/>
<path d="M19.4063 20.1093C25.6468 19.7658 30.6595 20.9543 36.5889 22.9023C37.429 23.1687 38.2691 23.4351 39.1347 23.7096C41.1864 24.3618 43.2343 25.0272 45.2812 25.6953C45.7319 27.9776 45.7319 27.9776 45.2812 31.2812C43.1838 34.3246 40.6564 36.8522 38.0713 39.4506C37.0592 40.5318 37.0592 40.5318 36.0266 41.6348C30.9843 46.8051 30.9843 46.8051 26.9995 47.3888C26.2726 47.2347 25.5458 47.0806 24.7969 46.9218C23.8854 43.9231 22.9894 40.9208 22.1016 37.9145C21.8445 37.0742 21.5873 36.2339 21.3224 35.3681C19.775 30.0765 19.1229 25.637 19.4063 20.1093ZM26.9531 27.9296C27.6647 30.879 28.3763 33.8284 29.1094 36.8671C31.2441 35.0238 33.3787 33.1804 35.5781 31.2812C32.8122 28.4151 30.7515 28.443 26.9531 27.9296Z" fill="#A45F2B"/>
<path d="M69.2443 -0.0916748C74.022 1.83985 75.5974 5.90687 78.0293 10.4038C78.5282 11.2671 79.0272 12.1305 79.5412 13.02C83.1569 19.5237 83.1569 19.5237 81.9375 24.5781C73.3988 24.5781 64.86 24.5781 56.0625 24.5781C54.9844 20.1093 54.9844 20.1093 55.8346 17.8763C56.285 17.1112 56.7355 16.346 57.1996 15.5577C57.6846 14.7202 58.1697 13.8828 58.6694 13.02C59.1878 12.1566 59.7062 11.2933 60.2403 10.4038C60.7503 9.52746 61.2603 8.65115 61.7858 7.74828C66.3108 0.0203177 66.3108 0.0203176 69.2443 -0.0916748ZM67.9219 11.1718C66.8546 13.3839 65.7872 15.5959 64.6875 17.875C67.5338 17.875 70.38 17.875 73.3125 17.875C71.7115 14.5569 71.7115 14.5569 70.0781 11.1718C69.3666 11.1718 68.655 11.1718 67.9219 11.1718Z" fill="#A45F2B"/>
<path d="M23.7188 58.0938C23.7188 66.9419 23.7188 75.79 23.7188 84.9063C17.673 86.4724 15.1751 84.0429 10.04 80.8564C9.19436 80.3654 8.34869 79.8743 7.47739 79.3683C1.34578 75.6231 1.34578 75.6231 -0.0210571 71.6833C-0.0141083 70.8855 -0.00715942 70.0876 0 69.2656C4.87492 65.7905 9.79734 62.4025 14.8916 59.2808C15.6546 58.8098 16.4176 58.3389 17.2037 57.8537C19.4062 56.9766 19.4062 56.9766 23.7188 58.0938ZM10.7812 70.3828C11.137 71.4888 11.4928 72.5948 11.8594 73.7344C14.5595 75.0959 14.5595 75.0959 17.25 75.9688C17.25 73.0194 17.25 70.07 17.25 67.0313C14.9264 67.0313 12.7044 69.1564 10.7812 70.3828Z" fill="#A45F2B"/>
<path d="M66.8438 43.5703C68.6227 43.939 70.4016 44.3077 72.2344 44.6875C71.8786 46.1622 71.5228 47.6369 71.1562 49.1562C69.3773 48.7876 67.5984 48.4189 65.7656 48.0391C66.1214 46.5644 66.4772 45.0897 66.8438 43.5703Z" fill="#A45F2B"/>
</g>
<defs>
<clipPath id="clip0_428_2442">
<rect width="138" height="143" fill="white"/>
</clipPath>
</defs>
</svg>
