<svg width="111" height="116" viewBox="0 0 111 116" fill="none" xmlns="http://www.w3.org/2000/svg">
<g clip-path="url(#clip0_431_2584)">
<path d="M93.6158 10.0985C102.303 17.5436 108.156 26.1608 109.969 37.7969C110.916 51.1369 108.58 62.0119 100.266 72.4297C92.464 81.0012 83.9561 86.3063 72.4913 87.18C59.3329 87.3985 49.3391 84.0254 39.6758 74.5811C30.662 64.6882 27.6564 54.7316 27.7996 41.2924C28.6165 28.965 34.3376 19.2291 42.7839 10.7923C57.6053 -1.32866 78.5055 -1.12521 93.6158 10.0985ZM42.4217 21.0434C36.3307 29.9168 33.0777 39.1303 34.5 50.0859C37.2921 61.3635 41.725 69.3036 51.3331 75.4583C59.76 80.1746 67.9939 81.8053 77.406 79.5168C84.6179 77.1221 89.6476 73.5836 94.875 67.9609C95.6755 67.1314 96.476 66.3019 97.3008 65.4473C102.255 57.3802 104.9 48.4543 103.5 38.9141C100.684 27.6336 96.288 19.7047 86.6669 13.5417C72.064 5.3689 53.415 7.22806 42.4217 21.0434Z" fill="#A45F2B"/>
<path d="M60.375 19.9218C60.2402 22.3656 60.2402 22.3656 59.2969 25.5077C57.698 26.9124 56.0952 28.3138 54.4453 29.6535C50.8959 32.8144 49.7941 36.1613 49.2147 40.8909C48.9019 47.673 49.3374 52.804 53.3335 58.3251C58.1277 63.5972 62.1136 64.8906 68.9326 65.2377C75.2367 64.9924 79.4857 63.5229 84.0937 59.0234C88.5851 53.3221 89.1416 48.3827 88.8948 41.0829C87.9226 34.5433 84.8849 30.4089 79.9834 26.3456C79.2051 25.7004 78.4269 25.0553 77.625 24.3905C77.625 22.9159 77.625 21.4412 77.625 19.9218C80.2481 18.9229 81.4504 18.5829 84.0558 19.769C90.0987 24.3693 93.8251 29.154 95.9531 36.6796C97.1449 45.5065 96.6722 53.3183 92.3144 61.1181C88.2228 66.6625 82.9211 70.273 76.5469 72.4296C66.9815 73.5793 58.4947 73.0426 50.6719 66.8437C44.6206 60.3641 41.7416 53.9076 41.5752 44.849C41.7257 36.0898 43.5204 29.5828 49.5643 23.2952C55.6676 18.1292 55.6676 18.1292 60.375 19.9218Z" fill="#A45F2B"/>
<path d="M73.3125 29.9765C78.0136 32.4582 81.0025 34.932 83.0156 40.0312C83.5939 45.4242 83.5764 47.828 81.1963 52.6694C77.3422 57.3108 74.9968 58.8295 69.0674 59.5122C64.4557 59.3138 61.7397 57.6941 58.2188 54.5547C55.1082 50.6868 54.4031 47.3064 54.6054 42.2569C55.4381 37.3672 58.1506 34.318 61.7227 31.2334C65.656 29.566 69.1644 29.218 73.3125 29.9765ZM63.8115 39.0537C61.126 42.0562 61.126 42.0562 61.3857 45.7568C62.3296 48.9871 62.3296 48.9871 64.3506 51.1333C67.8135 52.782 69.7167 52.3923 73.3125 51.2031C75.5535 49.4414 75.5535 49.4414 76.5469 46.7344C76.469 42.7803 76.1932 40.8078 73.5147 37.9365C69.4285 35.7589 67.3946 36.2484 63.8115 39.0537Z" fill="#A45F2B"/>
<path d="M111.001 68.6111C111.727 68.7652 112.454 68.9193 113.203 69.078C114.115 72.0768 115.011 75.0791 115.898 78.0854C116.156 78.9257 116.413 79.766 116.678 80.6318C118.225 85.9234 118.877 90.3629 118.594 95.8905C112.353 96.2341 107.341 95.0456 101.411 93.0976C100.151 92.6979 100.151 92.6979 98.8653 92.2902C96.8136 91.638 94.7657 90.9727 92.7188 90.3046C92.2681 88.0222 92.2681 88.0222 92.7188 84.7187C94.8162 81.6752 97.3437 79.1477 99.9287 76.5492C100.603 75.8284 101.278 75.1077 101.973 74.365C107.016 69.1947 107.016 69.1947 111.001 68.6111ZM107.813 79.1327C105.99 81.3443 104.192 83.5785 102.422 85.8358C105.268 86.5732 108.114 87.3105 111.047 88.0702C110.335 85.1208 109.624 82.1715 108.891 79.1327C108.535 79.1327 108.179 79.1327 107.813 79.1327Z" fill="#A45F2B"/>
<path d="M24.7969 69.0782C26.9994 68.6113 26.9994 68.6113 30.1875 69.0782C33.1245 71.2516 35.5637 73.8707 38.0713 76.5494C38.7669 77.2486 39.4624 77.9478 40.1791 78.6682C45.1686 83.8932 45.1686 83.8932 45.7319 88.0224C45.5832 88.7756 45.4345 89.5288 45.2812 90.3048C42.3873 91.2493 39.49 92.1777 36.5889 93.0978C35.7779 93.3642 34.967 93.6306 34.1315 93.9051C29.0249 95.5086 24.7406 96.1844 19.4062 95.8907C19.0747 89.4241 20.2216 84.2298 22.1016 78.0856C22.3587 77.215 22.6158 76.3445 22.8807 75.4475C23.51 73.3214 24.1522 71.1994 24.7969 69.0782ZM29.1094 79.1329C28.3978 82.0823 27.6862 85.0317 26.9531 88.0704C29.7994 87.3331 32.6456 86.5957 35.5781 85.8361C33.8082 83.5787 32.0105 81.3445 30.1875 79.1329C29.8317 79.1329 29.4759 79.1329 29.1094 79.1329Z" fill="#A45F2B"/>
<path d="M118.594 -6.89067C118.925 -0.423991 117.778 4.77032 115.898 10.9145C115.641 11.7851 115.384 12.6556 115.119 13.5526C114.49 15.6786 113.848 17.8007 113.203 19.9218C111.001 20.3888 111.001 20.3888 107.813 19.9218C104.875 17.7484 102.436 15.1294 99.9287 12.4506C98.8853 11.4019 98.8853 11.4019 97.8209 10.3319C92.8314 5.10691 92.8314 5.10691 92.2681 0.97765C92.4168 0.224465 92.5655 -0.52872 92.7188 -1.30473C95.6127 -2.24922 98.51 -3.17766 101.411 -4.0977C102.222 -4.36412 103.033 -4.63054 103.869 -4.90504C108.975 -6.50855 113.259 -7.1843 118.594 -6.89067ZM102.422 3.16402C104.201 5.37605 105.98 7.58808 107.813 9.86715C110.578 7.00105 110.551 4.86565 111.047 0.929646C107.938 0.929646 105.338 2.11281 102.422 3.16402Z" fill="#A45F2B"/>
<path d="M19.4063 -6.89056C25.6468 -7.23407 30.6595 -6.04562 36.5889 -4.09759C37.429 -3.83116 38.2691 -3.56474 39.1347 -3.29024C41.1864 -2.63807 43.2343 -1.9727 45.2812 -1.30462C45.7319 0.977762 45.7319 0.977762 45.2812 4.28132C43.1838 7.32476 40.6564 9.8523 38.0713 12.4508C37.0592 13.5319 37.0592 13.5319 36.0266 14.6349C30.9843 19.8052 30.9843 19.8052 26.9995 20.3889C26.2726 20.2348 25.5458 20.0807 24.7969 19.9219C23.8854 16.9232 22.9894 13.9209 22.1016 10.9146C21.8445 10.0743 21.5873 9.234 21.3224 8.36822C19.775 3.07663 19.1229 -1.36291 19.4063 -6.89056ZM26.9531 0.929758C27.6647 3.87913 28.3763 6.82851 29.1094 9.86726C31.2441 8.0239 33.3787 6.18054 35.5781 4.28132C32.8122 1.41522 30.7515 1.44315 26.9531 0.929758Z" fill="#A45F2B"/>
<path d="M56.0625 91.4219C64.6012 91.4219 73.14 91.4219 81.9375 91.4219C83.4489 97.6866 81.1043 100.275 78.0293 105.596C77.5554 106.473 77.0815 107.349 76.5932 108.252C72.9789 114.605 72.9789 114.605 69.1769 116.022C68.4069 116.015 67.637 116.007 66.8437 116C63.4901 110.948 60.2206 105.848 57.208 100.569C56.5263 99.3829 56.5263 99.3829 55.8309 98.173C54.9844 95.8906 54.9844 95.8906 56.0625 91.4219ZM64.6875 98.125C65.7548 100.337 66.8222 102.549 67.9219 104.828C68.9892 104.459 70.0566 104.091 71.1562 103.711C72.4701 100.913 72.4701 100.913 73.3125 98.125C70.4662 98.125 67.62 98.125 64.6875 98.125Z" fill="#A45F2B"/>
<path d="M23.7188 31.0938C23.7188 39.9419 23.7188 48.79 23.7188 57.9063C17.673 59.4724 15.1751 57.0429 10.04 53.8564C9.19436 53.3654 8.34869 52.8743 7.47739 52.3683C1.34578 48.6231 1.34578 48.6231 -0.0210571 44.6833C-0.0141083 43.8855 -0.00715942 43.0876 0 42.2656C4.87492 38.7905 9.79734 35.4025 14.8916 32.2808C15.6546 31.8098 16.4176 31.3389 17.2037 30.8537C19.4062 29.9766 19.4062 29.9766 23.7188 31.0938ZM10.7812 43.3828C11.137 44.4888 11.4928 45.5948 11.8594 46.7344C14.5595 48.0959 14.5595 48.0959 17.25 48.9688C17.25 46.0194 17.25 43.07 17.25 40.0313C14.9264 40.0313 12.7044 42.1564 10.7812 43.3828Z" fill="#A45F2B"/>
<path d="M66.8438 16.5703C68.6227 16.939 70.4016 17.3077 72.2344 17.6875C71.8786 19.1622 71.5228 20.6369 71.1562 22.1562C69.3773 21.7876 67.5984 21.4189 65.7656 21.0391C66.1214 19.5644 66.4772 18.0897 66.8438 16.5703Z" fill="#A45F2B"/>
</g>
<defs>
<clipPath id="clip0_431_2584">
<rect width="138" height="143" fill="white" transform="translate(0 -27)"/>
</clipPath>
</defs>
</svg>
